<?xml version="1.0" encoding="UTF-8" standalone="no"?>
<!-- Created with Inkscape (http://www.inkscape.org/) -->

<svg
   xmlns:dc="http://purl.org/dc/elements/1.1/"
   xmlns:cc="http://creativecommons.org/ns#"
   xmlns:rdf="http://www.w3.org/1999/02/22-rdf-syntax-ns#"
   xmlns:svg="http://www.w3.org/2000/svg"
   xmlns="http://www.w3.org/2000/svg"
   xmlns:sodipodi="http://sodipodi.sourceforge.net/DTD/sodipodi-0.dtd"
   xmlns:inkscape="http://www.inkscape.org/namespaces/inkscape"
   version="1.1"
   width="30"
   height="33.985916"
   id="svg2">
  <style type="text/css"> path { fill: white; } </style>
  <g
     id="layer1"
     transform="translate(0,-1018.3763)">
    <g
       id="g3015" transform="translate(-24,0)">
      <path
         inkscape:connector-curvature="0"
         type="MSShapeGroup"
         id="Fill-7"
         d="m 52.838541,1034.5492 -26.699827,0 c -2.353673,-0.1773 -2.277405,-11.2356 11.383728,-12.1846 0.130278,-0.058 0.158018,-0.071 0.233858,-0.3107 0.126584,-0.4433 0.199223,-0.8754 0.211627,-1.2836 0.01349,-0.5 -0.05509,-0.9447 -0.209794,-1.3606 -0.13935,-0.3691 -0.351349,-0.7199 -0.627557,-1.0334 0.421049,9e-4 0.837351,0.082 1.240505,0.2417 0.518087,0.1995 1.043106,0.5433 1.515959,0.9972 0.439278,0.4176 0.844637,0.9278 1.206931,1.5172 0.173297,0.2825 0.329463,0.569 0.477589,0.8769 0.07007,0.1496 0.137843,0.3047 0.202126,0.4672 13.334592,1.1098 13.400624,11.8936 11.064855,12.0702" />
      <path
         inkscape:connector-curvature="0"
         type="MSShapeGroup"
         id="Fill-8"
         d="m 52.209522,1035.7153 c 0,0 2.111403,12.6701 -10.817476,15.0635 -0.586306,0.482 -1.559723,1.5883 -1.914367,1.5834 -0.354997,0 -1.328424,-1.1014 -1.915465,-1.5834 -13.000764,-2.1492 -10.818593,-15.0635 -10.818593,-15.0635 l 25.465901,0" />
    </g>
  </g>
</svg>
